<svg id="Layer_1" data-name="Layer 1" xmlns="http://www.w3.org/2000/svg" xmlns:xlink="http://www.w3.org/1999/xlink" viewBox="0 0 1920 1080"><defs><style>.cls-1{fill:none;}.cls-2{opacity:0.2;}.cls-3{clip-path:url(#clip-path);}.cls-4{opacity:0.35;}.cls-5{fill:#ff9800;}.cls-6{fill:#f60;}.cls-7{fill:#e74c3c;}.cls-8{fill:#f1c408;}</style><clipPath id="clip-path"><path class="cls-1" d="M702,745.09V415.82H808.73q60.64,0,79.06,4.94,28.31,7.41,47.4,32.23t19.09,64.12q0,30.33-11,51t-28,32.46q-17,11.79-34.48,15.61-23.8,4.71-69,4.71H768.53V745.09Zm66.49-273.57V565h36.38q39.32,0,52.56-5.17a43.61,43.61,0,0,0,20.78-16.17A44.31,44.31,0,0,0,885.77,518q0-18-10.55-29.65a46,46,0,0,0-26.73-14.6q-11.91-2.24-47.84-2.24Z"/></clipPath></defs><title>splash_2</title><image class="cls-2" width="996" height="1266" transform="translate(0 -231) scale(1.93 1.5)" xlink:href="../Sk%C3%A6rmbillede%202019-06-10%20kl.%2015.50.18.png"/><g class="cls-3"><g class="cls-4"><polygon class="cls-5" points="888.24 287.46 787.61 194 791.2 291.04 888.24 287.46"/><polygon class="cls-6" points="787.61 194 694.16 294.63 791.2 291.04 787.61 194"/><polygon class="cls-7" points="694.16 294.63 794.78 388.08 791.2 291.04 694.16 294.63"/><polygon class="cls-8" points="791.2 291.04 794.78 388.08 888.24 287.46 791.2 291.04"/><polygon class="cls-5" points="988.86 380.91 888.24 287.46 891.82 384.5 988.86 380.91"/><polygon class="cls-6" points="888.24 287.46 794.78 388.08 891.82 384.5 888.24 287.46"/><polygon class="cls-7" points="794.78 388.08 895.41 481.54 891.82 384.5 794.78 388.08"/><polygon class="cls-8" points="891.82 384.5 895.41 481.54 988.86 380.91 891.82 384.5"/><polygon class="cls-5" points="794.78 388.08 694.16 294.63 697.74 391.67 794.78 388.08"/><polygon class="cls-6" points="694.16 294.63 600.7 395.25 697.74 391.67 694.16 294.63"/><polygon class="cls-7" points="600.7 395.25 701.33 488.71 697.74 391.67 600.7 395.25"/><polygon class="cls-8" points="697.74 391.67 701.33 488.71 794.78 388.08 697.74 391.67"/><polygon class="cls-5" points="895.41 481.54 794.78 388.08 798.37 485.12 895.41 481.54"/><polygon class="cls-6" points="794.78 388.08 701.33 488.71 798.37 485.12 794.78 388.08"/><polygon class="cls-7" points="701.33 488.71 801.95 582.16 798.37 485.12 701.33 488.71"/><polygon class="cls-8" points="798.37 485.12 801.95 582.16 895.41 481.54 798.37 485.12"/><polygon class="cls-5" points="1089.49 474.37 988.86 380.91 992.45 477.95 1089.49 474.37"/><polygon class="cls-6" points="988.86 380.91 895.41 481.54 992.45 477.95 988.86 380.91"/><polygon class="cls-7" points="895.41 481.54 996.03 574.99 992.45 477.95 895.41 481.54"/><polygon class="cls-8" points="992.45 477.95 996.03 574.99 1089.49 474.37 992.45 477.95"/><polygon class="cls-5" points="1190.12 567.82 1089.49 474.37 1093.08 571.41 1190.12 567.82"/><polygon class="cls-6" points="1089.49 474.37 996.03 574.99 1093.08 571.41 1089.49 474.37"/><polygon class="cls-7" points="996.03 574.99 1096.66 668.45 1093.08 571.41 996.03 574.99"/><polygon class="cls-8" points="1093.08 571.41 1096.66 668.45 1190.12 567.82 1093.08 571.41"/><polygon class="cls-5" points="996.03 574.99 895.41 481.54 898.99 578.58 996.03 574.99"/><polygon class="cls-6" points="895.41 481.54 801.95 582.16 898.99 578.58 895.41 481.54"/><polygon class="cls-7" points="801.95 582.16 902.58 675.62 898.99 578.58 801.95 582.16"/><polygon class="cls-8" points="898.99 578.58 902.58 675.62 996.03 574.99 898.99 578.58"/><polygon class="cls-5" points="1096.66 668.45 996.03 574.99 999.62 672.03 1096.66 668.45"/><polygon class="cls-6" points="996.03 574.99 902.58 675.62 999.62 672.03 996.03 574.99"/><polygon class="cls-7" points="902.58 675.62 1003.2 769.07 999.62 672.03 902.58 675.62"/><polygon class="cls-8" points="999.62 672.03 1003.2 769.07 1096.66 668.45 999.62 672.03"/><polygon class="cls-5" points="701.33 488.71 600.7 395.25 604.29 492.29 701.33 488.71"/><polygon class="cls-6" points="600.7 395.25 507.25 495.88 604.29 492.29 600.7 395.25"/><polygon class="cls-7" points="507.25 495.88 607.87 589.33 604.29 492.29 507.25 495.88"/><polygon class="cls-8" points="604.29 492.29 607.87 589.33 701.33 488.71 604.29 492.29"/><polygon class="cls-5" points="801.95 582.16 701.33 488.71 704.91 585.75 801.95 582.16"/><polygon class="cls-6" points="701.33 488.71 607.87 589.33 704.91 585.75 701.33 488.71"/><polygon class="cls-7" points="607.87 589.33 708.5 682.79 704.91 585.75 607.87 589.33"/><polygon class="cls-8" points="704.91 585.75 708.5 682.79 801.95 582.16 704.91 585.75"/><polygon class="cls-5" points="607.87 589.33 507.25 495.88 510.83 592.92 607.87 589.33"/><polygon class="cls-6" points="507.25 495.88 413.79 596.5 510.83 592.92 507.25 495.88"/><polygon class="cls-7" points="413.79 596.5 514.42 689.96 510.83 592.92 413.79 596.5"/><polygon class="cls-8" points="510.83 592.92 514.42 689.96 607.87 589.33 510.83 592.92"/><polygon class="cls-5" points="708.5 682.79 607.87 589.33 611.46 686.37 708.5 682.79"/><polygon class="cls-6" points="607.87 589.33 514.42 689.96 611.46 686.37 607.87 589.33"/><polygon class="cls-7" points="514.42 689.96 615.04 783.41 611.46 686.37 514.42 689.96"/><polygon class="cls-8" points="611.46 686.37 615.04 783.41 708.5 682.79 611.46 686.37"/><polygon class="cls-5" points="902.58 675.62 801.95 582.16 805.54 679.2 902.58 675.62"/><polygon class="cls-6" points="801.95 582.16 708.5 682.79 805.54 679.2 801.95 582.16"/><polygon class="cls-7" points="708.5 682.79 809.12 776.24 805.54 679.2 708.5 682.79"/><polygon class="cls-8" points="805.54 679.2 809.12 776.24 902.58 675.62 805.54 679.2"/><polygon class="cls-5" points="1003.2 769.07 902.58 675.62 906.16 772.66 1003.2 769.07"/><polygon class="cls-6" points="902.58 675.62 809.12 776.24 906.16 772.66 902.58 675.62"/><polygon class="cls-7" points="809.12 776.24 909.75 869.7 906.16 772.66 809.12 776.24"/><polygon class="cls-8" points="906.16 772.66 909.75 869.7 1003.2 769.07 906.16 772.66"/><polygon class="cls-5" points="809.12 776.24 708.5 682.79 712.08 779.83 809.12 776.24"/><polygon class="cls-6" points="708.5 682.79 615.04 783.41 712.08 779.83 708.5 682.79"/><polygon class="cls-7" points="615.04 783.41 715.67 876.87 712.08 779.83 615.04 783.41"/><polygon class="cls-8" points="712.08 779.83 715.67 876.87 809.12 776.24 712.08 779.83"/><polygon class="cls-5" points="909.75 869.7 809.12 776.24 812.71 873.28 909.75 869.7"/><polygon class="cls-6" points="809.12 776.24 715.67 876.87 812.71 873.28 809.12 776.24"/><polygon class="cls-7" points="715.67 876.87 816.29 970.33 812.71 873.28 715.67 876.87"/><polygon class="cls-8" points="812.71 873.28 816.29 970.33 909.75 869.7 812.71 873.28"/></g><g class="cls-4"><polygon class="cls-5" points="611.28 341.45 476.87 369.57 558.14 422.72 611.28 341.45"/><polygon class="cls-6" points="476.87 369.57 504.99 503.99 558.14 422.72 476.87 369.57"/><polygon class="cls-7" points="504.99 503.99 639.41 475.87 558.14 422.72 504.99 503.99"/><polygon class="cls-8" points="558.14 422.72 639.41 475.87 611.28 341.45 558.14 422.72"/><polygon class="cls-5" points="745.7 313.32 611.28 341.45 692.56 394.6 745.7 313.32"/><polygon class="cls-6" points="611.28 341.45 639.41 475.87 692.56 394.6 611.28 341.45"/><polygon class="cls-7" points="639.41 475.87 773.83 447.74 692.56 394.6 639.41 475.87"/><polygon class="cls-8" points="692.56 394.6 773.83 447.74 745.7 313.32 692.56 394.6"/><polygon class="cls-5" points="639.41 475.87 504.99 503.99 586.26 557.14 639.41 475.87"/><polygon class="cls-6" points="504.99 503.99 533.12 638.41 586.26 557.14 504.99 503.99"/><polygon class="cls-7" points="533.12 638.41 667.53 610.29 586.26 557.14 533.12 638.41"/><polygon class="cls-8" points="586.26 557.14 667.53 610.29 639.41 475.87 586.26 557.14"/><polygon class="cls-5" points="773.83 447.74 639.41 475.87 720.68 529.01 773.83 447.74"/><polygon class="cls-6" points="639.41 475.87 667.53 610.29 720.68 529.01 639.41 475.87"/><polygon class="cls-7" points="667.53 610.29 801.95 582.16 720.68 529.01 667.53 610.29"/><polygon class="cls-8" points="720.68 529.01 801.95 582.16 773.83 447.74 720.68 529.01"/><polygon class="cls-5" points="880.12 285.2 745.7 313.32 826.98 366.47 880.12 285.2"/><polygon class="cls-6" points="745.7 313.32 773.83 447.74 826.98 366.47 745.7 313.32"/><polygon class="cls-7" points="773.83 447.74 908.25 419.62 826.98 366.47 773.83 447.74"/><polygon class="cls-8" points="826.98 366.47 908.25 419.62 880.12 285.2 826.98 366.47"/><polygon class="cls-5" points="1014.54 257.07 880.12 285.2 961.39 338.35 1014.54 257.07"/><polygon class="cls-6" points="880.12 285.2 908.25 419.62 961.39 338.35 880.12 285.2"/><polygon class="cls-7" points="908.25 419.62 1042.67 391.49 961.39 338.35 908.25 419.62"/><polygon class="cls-8" points="961.39 338.35 1042.67 391.49 1014.54 257.07 961.39 338.35"/><polygon class="cls-5" points="908.25 419.62 773.83 447.74 855.1 500.89 908.25 419.62"/><polygon class="cls-6" points="773.83 447.74 801.95 582.16 855.1 500.89 773.83 447.74"/><polygon class="cls-7" points="801.95 582.16 936.37 554.04 855.1 500.89 801.95 582.16"/><polygon class="cls-8" points="855.1 500.89 936.37 554.04 908.25 419.62 855.1 500.89"/><polygon class="cls-5" points="1042.67 391.49 908.25 419.62 989.52 472.77 1042.67 391.49"/><polygon class="cls-6" points="908.25 419.62 936.37 554.04 989.52 472.77 908.25 419.62"/><polygon class="cls-7" points="936.37 554.04 1070.79 525.91 989.52 472.77 936.37 554.04"/><polygon class="cls-8" points="989.52 472.77 1070.79 525.91 1042.67 391.49 989.52 472.77"/><polygon class="cls-5" points="667.53 610.29 533.12 638.41 614.39 691.56 667.53 610.29"/><polygon class="cls-6" points="533.12 638.41 561.24 772.83 614.39 691.56 533.12 638.41"/><polygon class="cls-7" points="561.24 772.83 695.66 744.71 614.39 691.56 561.24 772.83"/><polygon class="cls-8" points="614.39 691.56 695.66 744.71 667.53 610.29 614.39 691.56"/><polygon class="cls-5" points="801.95 582.16 667.53 610.29 748.81 663.43 801.95 582.16"/><polygon class="cls-6" points="667.53 610.29 695.66 744.71 748.81 663.43 667.53 610.29"/><polygon class="cls-7" points="695.66 744.71 830.08 716.58 748.81 663.43 695.66 744.71"/><polygon class="cls-8" points="748.81 663.43 830.08 716.58 801.95 582.16 748.81 663.43"/><polygon class="cls-5" points="695.66 744.71 561.24 772.83 642.51 825.98 695.66 744.71"/><polygon class="cls-6" points="561.24 772.83 589.36 907.25 642.51 825.98 561.24 772.83"/><polygon class="cls-7" points="589.36 907.25 723.78 879.13 642.51 825.98 589.36 907.25"/><polygon class="cls-8" points="642.51 825.98 723.78 879.13 695.66 744.71 642.51 825.98"/><polygon class="cls-5" points="830.08 716.58 695.66 744.71 776.93 797.85 830.08 716.58"/><polygon class="cls-6" points="695.66 744.71 723.78 879.13 776.93 797.85 695.66 744.71"/><polygon class="cls-7" points="723.78 879.13 858.2 851 776.93 797.85 723.78 879.13"/><polygon class="cls-8" points="776.93 797.85 858.2 851 830.08 716.58 776.93 797.85"/><polygon class="cls-5" points="936.37 554.04 801.95 582.16 883.23 635.31 936.37 554.04"/><polygon class="cls-6" points="801.95 582.16 830.08 716.58 883.23 635.31 801.95 582.16"/><polygon class="cls-7" points="830.08 716.58 964.5 688.46 883.23 635.31 830.08 716.58"/><polygon class="cls-8" points="883.23 635.31 964.5 688.46 936.37 554.04 883.23 635.31"/><polygon class="cls-5" points="1070.79 525.91 936.37 554.04 1017.64 607.18 1070.79 525.91"/><polygon class="cls-6" points="936.37 554.04 964.5 688.46 1017.64 607.18 936.37 554.04"/><polygon class="cls-7" points="964.5 688.46 1098.91 660.33 1017.64 607.18 964.5 688.46"/><polygon class="cls-8" points="1017.64 607.18 1098.91 660.33 1070.79 525.91 1017.64 607.18"/><polygon class="cls-5" points="964.5 688.46 830.08 716.58 911.35 769.73 964.5 688.46"/><polygon class="cls-6" points="830.08 716.58 858.2 851 911.35 769.73 830.08 716.58"/><polygon class="cls-7" points="858.2 851 992.62 822.88 911.35 769.73 858.2 851"/><polygon class="cls-8" points="911.35 769.73 992.62 822.88 964.5 688.46 911.35 769.73"/><polygon class="cls-5" points="1098.91 660.33 964.5 688.46 1045.77 741.6 1098.91 660.33"/><polygon class="cls-6" points="964.5 688.46 992.62 822.88 1045.77 741.6 964.5 688.46"/><polygon class="cls-7" points="992.62 822.88 1127.04 794.75 1045.77 741.6 992.62 822.88"/><polygon class="cls-8" points="1045.77 741.6 1127.04 794.75 1098.91 660.33 1045.77 741.6"/></g><g class="cls-4"><polygon class="cls-5" points="885.23 286.59 783.66 194.17 788.23 291.17 885.23 286.59"/><polygon class="cls-6" points="783.66 194.17 691.23 295.74 788.23 291.17 783.66 194.17"/><polygon class="cls-7" points="691.23 295.74 792.81 388.16 788.23 291.17 691.23 295.74"/><polygon class="cls-8" points="788.23 291.17 792.81 388.16 885.23 286.59 788.23 291.17"/><polygon class="cls-5" points="986.8 379.02 885.23 286.59 889.81 383.59 986.8 379.02"/><polygon class="cls-6" points="885.23 286.59 792.81 388.16 889.81 383.59 885.23 286.59"/><polygon class="cls-7" points="792.81 388.16 894.38 480.59 889.81 383.59 792.81 388.16"/><polygon class="cls-8" points="889.81 383.59 894.38 480.59 986.8 379.02 889.81 383.59"/><polygon class="cls-5" points="792.81 388.16 691.23 295.74 695.81 392.74 792.81 388.16"/><polygon class="cls-6" points="691.23 295.74 598.81 397.31 695.81 392.74 691.23 295.74"/><polygon class="cls-7" points="598.81 397.31 700.38 489.74 695.81 392.74 598.81 397.31"/><polygon class="cls-8" points="695.81 392.74 700.38 489.74 792.81 388.16 695.81 392.74"/><polygon class="cls-5" points="894.38 480.59 792.81 388.16 797.38 485.16 894.38 480.59"/><polygon class="cls-6" points="792.81 388.16 700.38 489.74 797.38 485.16 792.81 388.16"/><polygon class="cls-7" points="700.38 489.74 801.95 582.16 797.38 485.16 700.38 489.74"/><polygon class="cls-8" points="797.38 485.16 801.95 582.16 894.38 480.59 797.38 485.16"/><polygon class="cls-5" points="1088.38 471.44 986.8 379.02 991.38 476.02 1088.38 471.44"/><polygon class="cls-6" points="986.8 379.02 894.38 480.59 991.38 476.02 986.8 379.02"/><polygon class="cls-7" points="894.38 480.59 995.95 573.02 991.38 476.02 894.38 480.59"/><polygon class="cls-8" points="991.38 476.02 995.95 573.02 1088.38 471.44 991.38 476.02"/><polygon class="cls-5" points="1189.95 563.87 1088.38 471.44 1092.95 568.44 1189.95 563.87"/><polygon class="cls-6" points="1088.38 471.44 995.95 573.02 1092.95 568.44 1088.38 471.44"/><polygon class="cls-7" points="995.95 573.02 1097.52 665.44 1092.95 568.44 995.95 573.02"/><polygon class="cls-8" points="1092.95 568.44 1097.52 665.44 1189.95 563.87 1092.95 568.44"/><polygon class="cls-5" points="995.95 573.02 894.38 480.59 898.95 577.59 995.95 573.02"/><polygon class="cls-6" points="894.38 480.59 801.95 582.16 898.95 577.59 894.38 480.59"/><polygon class="cls-7" points="801.95 582.16 903.52 674.59 898.95 577.59 801.95 582.16"/><polygon class="cls-8" points="898.95 577.59 903.52 674.59 995.95 573.02 898.95 577.59"/><polygon class="cls-5" points="1097.52 665.44 995.95 573.02 1000.52 670.01 1097.52 665.44"/><polygon class="cls-6" points="995.95 573.02 903.52 674.59 1000.52 670.01 995.95 573.02"/><polygon class="cls-7" points="903.52 674.59 1005.1 767.01 1000.52 670.01 903.52 674.59"/><polygon class="cls-8" points="1000.52 670.01 1005.1 767.01 1097.52 665.44 1000.52 670.01"/><polygon class="cls-5" points="700.38 489.74 598.81 397.31 603.38 494.31 700.38 489.74"/><polygon class="cls-6" points="598.81 397.31 506.38 498.88 603.38 494.31 598.81 397.31"/><polygon class="cls-7" points="506.38 498.88 607.96 591.31 603.38 494.31 506.38 498.88"/><polygon class="cls-8" points="603.38 494.31 607.96 591.31 700.38 489.74 603.38 494.31"/><polygon class="cls-5" points="801.95 582.16 700.38 489.74 704.95 586.74 801.95 582.16"/><polygon class="cls-6" points="700.38 489.74 607.96 591.31 704.95 586.74 700.38 489.74"/><polygon class="cls-7" points="607.96 591.31 709.53 683.74 704.95 586.74 607.96 591.31"/><polygon class="cls-8" points="704.95 586.74 709.53 683.74 801.95 582.16 704.95 586.74"/><polygon class="cls-5" points="607.96 591.31 506.38 498.88 510.96 595.88 607.96 591.31"/><polygon class="cls-6" points="506.38 498.88 413.96 600.46 510.96 595.88 506.38 498.88"/><polygon class="cls-7" points="413.96 600.46 515.53 692.88 510.96 595.88 413.96 600.46"/><polygon class="cls-8" points="510.96 595.88 515.53 692.88 607.96 591.31 510.96 595.88"/><polygon class="cls-5" points="709.53 683.74 607.96 591.31 612.53 688.31 709.53 683.74"/><polygon class="cls-6" points="607.96 591.31 515.53 692.88 612.53 688.31 607.96 591.31"/><polygon class="cls-7" points="515.53 692.88 617.1 785.31 612.53 688.31 515.53 692.88"/><polygon class="cls-8" points="612.53 688.31 617.1 785.31 709.53 683.74 612.53 688.31"/><polygon class="cls-5" points="903.52 674.59 801.95 582.16 806.53 679.16 903.52 674.59"/><polygon class="cls-6" points="801.95 582.16 709.53 683.74 806.53 679.16 801.95 582.16"/><polygon class="cls-7" points="709.53 683.74 811.1 776.16 806.53 679.16 709.53 683.74"/><polygon class="cls-8" points="806.53 679.16 811.1 776.16 903.52 674.59 806.53 679.16"/><polygon class="cls-5" points="1005.1 767.01 903.52 674.59 908.1 771.59 1005.1 767.01"/><polygon class="cls-6" points="903.52 674.59 811.1 776.16 908.1 771.59 903.52 674.59"/><polygon class="cls-7" points="811.1 776.16 912.67 868.59 908.1 771.59 811.1 776.16"/><polygon class="cls-8" points="908.1 771.59 912.67 868.59 1005.1 767.01 908.1 771.59"/><polygon class="cls-5" points="811.1 776.16 709.53 683.74 714.1 780.73 811.1 776.16"/><polygon class="cls-6" points="709.53 683.74 617.1 785.31 714.1 780.73 709.53 683.74"/><polygon class="cls-7" points="617.1 785.31 718.67 877.73 714.1 780.73 617.1 785.31"/><polygon class="cls-8" points="714.1 780.73 718.67 877.73 811.1 776.16 714.1 780.73"/><polygon class="cls-5" points="912.67 868.59 811.1 776.16 815.67 873.16 912.67 868.59"/><polygon class="cls-6" points="811.1 776.16 718.67 877.73 815.67 873.16 811.1 776.16"/><polygon class="cls-7" points="718.67 877.73 820.25 970.16 815.67 873.16 718.67 877.73"/><polygon class="cls-8" points="815.67 873.16 820.25 970.16 912.67 868.59 815.67 873.16"/></g><g class="cls-4"><polygon class="cls-5" points="848.28 271.15 721.92 217.5 758.24 307.6 848.28 271.15"/><polygon class="cls-6" points="721.92 217.5 668.2 344.04 758.24 307.6 721.92 217.5"/><polygon class="cls-7" points="668.2 344.04 794.56 397.69 758.24 307.6 668.2 344.04"/><polygon class="cls-8" points="758.24 307.6 794.56 397.69 848.28 271.15 758.24 307.6"/><polygon class="cls-5" points="974.64 324.8 848.28 271.15 884.6 361.24 974.64 324.8"/><polygon class="cls-6" points="848.28 271.15 794.56 397.69 884.6 361.24 848.28 271.15"/><polygon class="cls-7" points="794.56 397.69 920.92 451.33 884.6 361.24 794.56 397.69"/><polygon class="cls-8" points="884.6 361.24 920.92 451.33 974.64 324.8 884.6 361.24"/><polygon class="cls-5" points="794.56 397.69 668.2 344.04 704.51 434.13 794.56 397.69"/><polygon class="cls-6" points="668.2 344.04 614.47 470.58 704.51 434.13 668.2 344.04"/><polygon class="cls-7" points="614.47 470.58 740.84 524.22 704.51 434.13 614.47 470.58"/><polygon class="cls-8" points="704.51 434.13 740.84 524.22 794.56 397.69 704.51 434.13"/><polygon class="cls-5" points="920.92 451.33 794.56 397.69 830.88 487.78 920.92 451.33"/><polygon class="cls-6" points="794.56 397.69 740.84 524.22 830.88 487.78 794.56 397.69"/><polygon class="cls-7" points="740.84 524.22 867.2 577.87 830.88 487.78 740.84 524.22"/><polygon class="cls-8" points="830.88 487.78 867.2 577.87 920.92 451.33 830.88 487.78"/><polygon class="cls-5" points="1101 378.44 974.64 324.8 1010.96 414.89 1101 378.44"/><polygon class="cls-6" points="974.64 324.8 920.92 451.33 1010.96 414.89 974.64 324.8"/><polygon class="cls-7" points="920.92 451.33 1047.28 504.98 1010.96 414.89 920.92 451.33"/><polygon class="cls-8" points="1010.96 414.89 1047.28 504.98 1101 378.44 1010.96 414.89"/><polygon class="cls-5" points="1227.36 432.09 1101 378.44 1137.32 468.54 1227.36 432.09"/><polygon class="cls-6" points="1101 378.44 1047.28 504.98 1137.32 468.54 1101 378.44"/><polygon class="cls-7" points="1047.28 504.98 1173.64 558.63 1137.32 468.54 1047.28 504.98"/><polygon class="cls-8" points="1137.32 468.54 1173.64 558.63 1227.36 432.09 1137.32 468.54"/><polygon class="cls-5" points="1047.28 504.98 920.92 451.33 957.24 541.42 1047.28 504.98"/><polygon class="cls-6" points="920.92 451.33 867.2 577.87 957.24 541.42 920.92 451.33"/><polygon class="cls-7" points="867.2 577.87 993.56 631.52 957.24 541.42 867.2 577.87"/><polygon class="cls-8" points="957.24 541.42 993.56 631.52 1047.28 504.98 957.24 541.42"/><polygon class="cls-5" points="1173.64 558.63 1047.28 504.98 1083.6 595.07 1173.64 558.63"/><polygon class="cls-6" points="1047.28 504.98 993.56 631.52 1083.6 595.07 1047.28 504.98"/><polygon class="cls-7" points="993.56 631.52 1119.92 685.16 1083.6 595.07 993.56 631.52"/><polygon class="cls-8" points="1083.6 595.07 1119.92 685.16 1173.64 558.63 1083.6 595.07"/><polygon class="cls-5" points="740.84 524.22 614.47 470.58 650.79 560.67 740.84 524.22"/><polygon class="cls-6" points="614.47 470.58 560.75 597.11 650.79 560.67 614.47 470.58"/><polygon class="cls-7" points="560.75 597.11 687.11 650.76 650.79 560.67 560.75 597.11"/><polygon class="cls-8" points="650.79 560.67 687.11 650.76 740.84 524.22 650.79 560.67"/><polygon class="cls-5" points="867.2 577.87 740.84 524.22 777.15 614.32 867.2 577.87"/><polygon class="cls-6" points="740.84 524.22 687.11 650.76 777.15 614.32 740.84 524.22"/><polygon class="cls-7" points="687.11 650.76 813.47 704.41 777.15 614.32 687.11 650.76"/><polygon class="cls-8" points="777.15 614.32 813.47 704.41 867.2 577.87 777.15 614.32"/><polygon class="cls-5" points="687.11 650.76 560.75 597.11 597.07 687.21 687.11 650.76"/><polygon class="cls-6" points="560.75 597.11 507.03 723.65 597.07 687.21 560.75 597.11"/><polygon class="cls-7" points="507.03 723.65 633.39 777.3 597.07 687.21 507.03 723.65"/><polygon class="cls-8" points="597.07 687.21 633.39 777.3 687.11 650.76 597.07 687.21"/><polygon class="cls-5" points="813.47 704.41 687.11 650.76 723.43 740.85 813.47 704.41"/><polygon class="cls-6" points="687.11 650.76 633.39 777.3 723.43 740.85 687.11 650.76"/><polygon class="cls-7" points="633.39 777.3 759.75 830.94 723.43 740.85 633.39 777.3"/><polygon class="cls-8" points="723.43 740.85 759.75 830.94 813.47 704.41 723.43 740.85"/><polygon class="cls-5" points="993.56 631.52 867.2 577.87 903.51 667.96 993.56 631.52"/><polygon class="cls-6" points="867.2 577.87 813.47 704.41 903.51 667.96 867.2 577.87"/><polygon class="cls-7" points="813.47 704.41 939.84 758.05 903.51 667.96 813.47 704.41"/><polygon class="cls-8" points="903.51 667.96 939.84 758.05 993.56 631.52 903.51 667.96"/><polygon class="cls-5" points="1119.92 685.16 993.56 631.52 1029.88 721.61 1119.92 685.16"/><polygon class="cls-6" points="993.56 631.52 939.84 758.05 1029.88 721.61 993.56 631.52"/><polygon class="cls-7" points="939.84 758.05 1066.2 811.7 1029.88 721.61 939.84 758.05"/><polygon class="cls-8" points="1029.88 721.61 1066.2 811.7 1119.92 685.16 1029.88 721.61"/><polygon class="cls-5" points="939.84 758.05 813.47 704.41 849.79 794.5 939.84 758.05"/><polygon class="cls-6" points="813.47 704.41 759.75 830.94 849.79 794.5 813.47 704.41"/><polygon class="cls-7" points="759.75 830.94 886.11 884.59 849.79 794.5 759.75 830.94"/><polygon class="cls-8" points="849.79 794.5 886.11 884.59 939.84 758.05 849.79 794.5"/><polygon class="cls-5" points="1066.2 811.7 939.84 758.05 976.15 848.14 1066.2 811.7"/><polygon class="cls-6" points="939.84 758.05 886.11 884.59 976.15 848.14 939.84 758.05"/><polygon class="cls-7" points="886.11 884.59 1012.48 938.24 976.15 848.14 886.11 884.59"/><polygon class="cls-8" points="976.15 848.14 1012.48 938.24 1066.2 811.7 976.15 848.14"/></g></g><path d="M840.28,724.51a21.67,21.67,0,0,1-6.72,16,23.08,23.08,0,0,1-32.44,0,22.51,22.51,0,0,1,0-32,23.09,23.09,0,0,1,32.44,0A21.77,21.77,0,0,1,840.28,724.51Zm-4.16,0a17.8,17.8,0,0,0-5.49-13.14,19,19,0,0,0-26.61,0,18.36,18.36,0,0,0,0,26.19,19,19,0,0,0,26.61,0A17.8,17.8,0,0,0,836.12,724.51Z"/><path d="M870.45,703.27v10.35q8-7.23,12-9.3a16.1,16.1,0,0,1,7.35-2.08,10.86,10.86,0,0,1,6.81,2.47c2.1,1.64,3.15,2.89,3.15,3.73a2.09,2.09,0,0,1-2.15,2.15,1.78,1.78,0,0,1-.83-.17,6.69,6.69,0,0,1-1.27-1.1,12.22,12.22,0,0,0-3-2.34,5.55,5.55,0,0,0-2.49-.64,13.78,13.78,0,0,0-6.47,2.15q-3.78,2.16-13.11,10.5v22.46h18.17a3.28,3.28,0,0,1,2.15.56,2.05,2.05,0,0,1,0,3,3.16,3.16,0,0,1-2.15.58H856.44a3.11,3.11,0,0,1-2.1-.56,1.92,1.92,0,0,1,0-2.83,3.13,3.13,0,0,1,2.12-.56h9.91V707.42h-7.57a3.08,3.08,0,0,1-2.1-.59,2.1,2.1,0,0,1,0-3,3,3,0,0,1,2.12-.58Z"/><path d="M925,703.27h22.26a3,3,0,0,1,2.1.58,2,2,0,0,1,.64,1.52,1.89,1.89,0,0,1-.64,1.46,3,3,0,0,1-2.1.59H925v27.29a7.46,7.46,0,0,0,2.85,6c1.91,1.6,4.7,2.39,8.38,2.39a36.14,36.14,0,0,0,9-1.24,30.51,30.51,0,0,0,7.52-2.81,3.22,3.22,0,0,1,1.61-.63,1.83,1.83,0,0,1,1.37.61,2,2,0,0,1,.59,1.44,1.91,1.91,0,0,1-.64,1.36c-1,1.08-3.57,2.24-7.59,3.5a38.89,38.89,0,0,1-11.55,1.88q-7.17,0-11.43-3.37a11,11,0,0,1-4.24-9.09V707.42h-7.57a3,3,0,0,1-2.1-.59,2,2,0,0,1-.64-1.51,2,2,0,0,1,.64-1.47,3,3,0,0,1,2.1-.58h7.57V691.16a3,3,0,0,1,.58-2.1,1.93,1.93,0,0,1,1.47-.64,2,2,0,0,1,1.51.64,3,3,0,0,1,.59,2.1Z"/><path d="M988.67,707.42v34h18a3.2,3.2,0,0,1,2.1.56,2.05,2.05,0,0,1,0,3,3.08,3.08,0,0,1-2.1.58H974.61a3,3,0,0,1-2.1-.58,2,2,0,0,1,0-3,3.16,3.16,0,0,1,2.1-.56h9.91v-34h-8.89a3.08,3.08,0,0,1-2.1-.59,2,2,0,0,1-.63-1.51,1.94,1.94,0,0,1,.63-1.47,3.08,3.08,0,0,1,2.1-.58h8.89v-6.2a11.77,11.77,0,0,1,4.2-9q4.2-3.81,11.13-3.81a76.86,76.86,0,0,1,12.4,1.08,6.34,6.34,0,0,1,3,.93,2,2,0,0,1,.51,1.41,1.9,1.9,0,0,1-.59,1.44,2.13,2.13,0,0,1-1.56.56,9.15,9.15,0,0,1-1.32-.14,84.81,84.81,0,0,0-12.45-1.13q-5.37,0-8.27,2.64a7.94,7.94,0,0,0-2.91,6v6.2h19.19a3,3,0,0,1,2.1.58,2,2,0,0,1,.63,1.52,1.92,1.92,0,0,1-.63,1.46,3,3,0,0,1-2.1.59Z"/><path d="M1072.31,724.51a21.66,21.66,0,0,1-6.71,16,23.09,23.09,0,0,1-32.45,0,22.51,22.51,0,0,1,0-32,23.11,23.11,0,0,1,32.45,0A21.77,21.77,0,0,1,1072.31,724.51Zm-4.15,0a17.8,17.8,0,0,0-5.49-13.14,19,19,0,0,0-26.61,0,18.36,18.36,0,0,0,0,26.19,19,19,0,0,0,26.61,0A17.8,17.8,0,0,0,1068.16,724.51Z"/><path d="M1109.47,684.27v57.18h16.12a3.28,3.28,0,0,1,2.15.56,2.05,2.05,0,0,1,0,3,3.16,3.16,0,0,1-2.15.58h-36.33a3,3,0,0,1-2.1-.58,2.05,2.05,0,0,1,0-3,3.16,3.16,0,0,1,2.1-.56h16.11v-53h-11.81a3.17,3.17,0,0,1-2.13-.58,1.93,1.93,0,0,1-.66-1.51,1.9,1.9,0,0,1,.64-1.47,3.14,3.14,0,0,1,2.15-.59Z"/><path d="M1167.58,703.27v38.18h16.12a3.25,3.25,0,0,1,2.14.56,2,2,0,0,1,0,3,3.13,3.13,0,0,1-2.14.58h-36.33a3,3,0,0,1-2.1-.58,2,2,0,0,1,0-3,3.16,3.16,0,0,1,2.1-.56h16.11v-34h-12a3.17,3.17,0,0,1-2.13-.59,1.88,1.88,0,0,1-.66-1.46,2,2,0,0,1,.64-1.52,3.14,3.14,0,0,1,2.15-.58Zm-.14-21v10.6h-6.06v-10.6Z"/><path d="M1246.34,724.51a21.66,21.66,0,0,1-6.71,16,23.09,23.09,0,0,1-32.45,0,22.51,22.51,0,0,1,0-32,23.11,23.11,0,0,1,32.45,0A21.77,21.77,0,0,1,1246.34,724.51Zm-4.15,0a17.8,17.8,0,0,0-5.49-13.14,19,19,0,0,0-26.61,0,18.36,18.36,0,0,0,0,26.19,19,19,0,0,0,26.61,0A17.8,17.8,0,0,0,1242.19,724.51Z"/><path d="M1095.89,765.78v8.16a6.59,6.59,0,0,1,5.37-2.9,6.25,6.25,0,0,1,4.62,2,6.61,6.61,0,0,1,1.92,4.8,6.73,6.73,0,0,1-1.94,4.87,6.25,6.25,0,0,1-4.6,2,6.47,6.47,0,0,1-5.37-2.9v2.41H1093a.91.91,0,0,1-.63-.17.61.61,0,0,1-.19-.44.59.59,0,0,1,.19-.45,1,1,0,0,1,.63-.17h1.66V767H1093a.91.91,0,0,1-.63-.18.62.62,0,0,1-.19-.45.58.58,0,0,1,.19-.44.91.91,0,0,1,.63-.18Zm10.68,12.07a5.4,5.4,0,0,0-1.6-4,5.12,5.12,0,0,0-7.47,0,5.68,5.68,0,0,0,0,7.9,5.12,5.12,0,0,0,7.47,0A5.4,5.4,0,0,0,1106.57,777.85Z"/><path d="M1118,784.16l-5.72-11.44h-.36a.91.91,0,0,1-.63-.17.58.58,0,0,1-.19-.44.7.7,0,0,1,.09-.35.65.65,0,0,1,.25-.22,1.4,1.4,0,0,1,.48-.06h3.37a1,1,0,0,1,.63.17.63.63,0,0,1,.19.46.61.61,0,0,1-.19.44.91.91,0,0,1-.63.17h-1.66l5,10.1,4.95-10.1H1122a.91.91,0,0,1-.63-.17.63.63,0,0,1-.19-.46.61.61,0,0,1,.19-.44,1,1,0,0,1,.63-.17h3.36a1,1,0,0,1,.64.17.59.59,0,0,1,.19.46.63.63,0,0,1-.11.35.53.53,0,0,1-.27.21,3.32,3.32,0,0,1-.82.05l-7.79,15.87h1.92a.91.91,0,0,1,.63.17.6.6,0,0,1,0,.88.91.91,0,0,1-.63.18H1112a.93.93,0,0,1-.63-.17.55.55,0,0,1-.19-.45.55.55,0,0,1,.19-.44.88.88,0,0,1,.63-.17h3.85Z"/><path d="M1158.76,784.16h-1.58l-9.07-15.33v14.1h2.27a1,1,0,0,1,.65.17.59.59,0,0,1,.19.45.61.61,0,0,1-.19.44.94.94,0,0,1-.65.17h-4.52a.94.94,0,0,1-.65-.17.58.58,0,0,1-.19-.44.55.55,0,0,1,.19-.45,1,1,0,0,1,.65-.17h1V768.26h-1.65a.93.93,0,0,1-.63-.17.55.55,0,0,1-.19-.45.58.58,0,0,1,.19-.45.94.94,0,0,1,.63-.16h3.22l9.08,15.36V768.26h-2.27a1,1,0,0,1-.63-.17.55.55,0,0,1-.19-.45.61.61,0,0,1,.18-.45,1,1,0,0,1,.64-.16h4.54a1,1,0,0,1,.63.16.58.58,0,0,1,.19.45.55.55,0,0,1-.19.45,1,1,0,0,1-.63.17h-1Z"/><path d="M1170.79,771.48v11.45h4.83a1,1,0,0,1,.65.17.59.59,0,0,1,.19.45.61.61,0,0,1-.19.44,1,1,0,0,1-.65.17h-10.9a.91.91,0,0,1-.63-.17.61.61,0,0,1-.19-.44.59.59,0,0,1,.19-.45,1,1,0,0,1,.63-.17h4.84V772.72H1166a.94.94,0,0,1-.64-.17.59.59,0,0,1-.2-.44.63.63,0,0,1,.19-.46,1,1,0,0,1,.65-.17Zm0-6.31v3.17h-1.81v-3.17Z"/><path d="M1185,771.48h6.68a1,1,0,0,1,.63.17.59.59,0,0,1,.19.46.58.58,0,0,1-.19.44.9.9,0,0,1-.63.17H1185v8.19a2.26,2.26,0,0,0,.86,1.79,3.81,3.81,0,0,0,2.51.72,10.88,10.88,0,0,0,2.7-.38,9.38,9.38,0,0,0,2.25-.84,1,1,0,0,1,.49-.19.57.57,0,0,1,.41.18.66.66,0,0,1,.17.44.58.58,0,0,1-.19.41,6,6,0,0,1-2.28,1,11.48,11.48,0,0,1-3.46.57,5.39,5.39,0,0,1-3.43-1,3.31,3.31,0,0,1-1.27-2.73v-8.19h-2.27a.88.88,0,0,1-.63-.17.59.59,0,0,1-.19-.46.58.58,0,0,1,.19-.44.93.93,0,0,1,.63-.17h2.27v-3.63a.93.93,0,0,1,.17-.63.58.58,0,0,1,.44-.19.59.59,0,0,1,.46.19.93.93,0,0,1,.17.63Z"/><path d="M1205.59,771.48v11.45h4.84a1,1,0,0,1,.64.17.55.55,0,0,1,.19.45.58.58,0,0,1-.19.44.91.91,0,0,1-.64.17h-10.9a.91.91,0,0,1-.63-.17.58.58,0,0,1-.19-.44.55.55,0,0,1,.19-.45,1,1,0,0,1,.63-.17h4.83V772.72h-3.59a.91.91,0,0,1-.63-.17.62.62,0,0,1,0-.9,1,1,0,0,1,.64-.17Zm0-6.31v3.17h-1.82v-3.17Z"/><path d="M1222.43,784.16l-5.72-11.44h-.36a.88.88,0,0,1-.63-.17.58.58,0,0,1-.19-.44.7.7,0,0,1,.09-.35.59.59,0,0,1,.25-.22,1.4,1.4,0,0,1,.48-.06h3.36a1,1,0,0,1,.64.17.63.63,0,0,1,.19.46.61.61,0,0,1-.19.44.93.93,0,0,1-.64.17h-1.65l5,10.1,5-10.1h-1.66a.91.91,0,0,1-.63-.17.59.59,0,0,1-.19-.46.58.58,0,0,1,.19-.44,1,1,0,0,1,.63-.17h3.35a1,1,0,0,1,.65.17.59.59,0,0,1,.19.46.57.57,0,0,1-.12.35.47.47,0,0,1-.26.21,3.32,3.32,0,0,1-.82.05l-7.79,15.87h1.91a.88.88,0,0,1,.63.17.6.6,0,0,1,0,.88.88.88,0,0,1-.63.18h-7.09a.92.92,0,0,1-.62-.17.56.56,0,0,1-.2-.45.56.56,0,0,1,.2-.44.87.87,0,0,1,.62-.17h3.86Z"/><path d="M1243.29,784.16v-1.77a8.74,8.74,0,0,1-5.73,2.26,5,5,0,0,1-3.46-1.12,3.57,3.57,0,0,1-1.24-2.75,3.92,3.92,0,0,1,1.64-3.12,7.43,7.43,0,0,1,4.79-1.33,15.31,15.31,0,0,1,1.84.11c.67.07,1.38.18,2.16.34v-2a2.23,2.23,0,0,0-.94-1.76,4.44,4.44,0,0,0-2.81-.75,14.16,14.16,0,0,0-4,.84,2.82,2.82,0,0,1-.6.15.55.55,0,0,1-.41-.18.61.61,0,0,1-.16-.44.53.53,0,0,1,.14-.4,5.43,5.43,0,0,1,1.66-.6,14.5,14.5,0,0,1,3.45-.61,5.3,5.3,0,0,1,3.64,1.15,3.4,3.4,0,0,1,1.3,2.6v8.14h1.64a1,1,0,0,1,.65.17.59.59,0,0,1,.19.45.61.61,0,0,1-.19.44,1,1,0,0,1-.65.17Zm0-6.12a12.88,12.88,0,0,0-1.83-.37,19,19,0,0,0-2-.11,6.73,6.73,0,0,0-4.19,1.15,2.55,2.55,0,0,0-1.14,2.07,2.41,2.41,0,0,0,.87,1.88,3.79,3.79,0,0,0,2.54.76,6.92,6.92,0,0,0,3-.64,10.63,10.63,0,0,0,2.82-2Z"/></svg>
